PathFileType	4	(X/Y/Z)	c:/Users/goper/Files/vsCode/490R/osim_files/A01/A01_Slow_05.trc
DataRate	CameraRate	NumFrames	NumMarkers	Units                	OrigDataRate	OrigDataStartFrame	OrigNumFrames
120.00	120.00	7	36	mm	120.0	889	1184
                Frame#	Time	Mobility_markerset:LPSIS			Mobility_markerset:LASIS			Mobility_markerset:LTH1			Mobility_markerset:LTH2			Mobility_markerset:LTH3			Mobility_markerset:LTH4			Mobility_markerset:LLFE			Mobility_markerset:LMFE			Mobility_markerset:LSH1			Mobility_markerset:LSH2			Mobility_markerset:LSH3			Mobility_markerset:LSH4			Mobility_markerset:LLMAL			Mobility_markerset:LMMAL			Mobility_markerset:LCAL			Mobility_markerset:LMTP5			Mobility_markerset:LTOE			Mobility_markerset:LMTP1			Mobility_markerset:RPSIS			Mobility_markerset:RASIS			Mobility_markerset:RTH1			Mobility_markerset:RTH2			Mobility_markerset:RTH3			Mobility_markerset:RTH4			Mobility_markerset:RLFE			Mobility_markerset:RMFE			Mobility_markerset:RSH1			Mobility_markerset:RSH2			Mobility_markerset:RSH3			Mobility_markerset:RSH4			Mobility_markerset:RLMAL			Mobility_markerset:RMMAL			Mobility_markerset:RCAL			Mobility_markerset:RMTP1			Mobility_markerset:RTOE			Mobility_markerset:RMTP5		
		X1	Y1	Z1	X2	Y2	Z2	X3	Y3	Z3	X4	Y4	Z4	X5	Y5	Z5	X6	Y6	Z6	X7	Y7	Z7	X8	Y8	Z8	X9	Y9	Z9	X10	Y10	Z10	X11	Y11	Z11	X12	Y12	Z12	X13	Y13	Z13	X14	Y14	Z14	X15	Y15	Z15	X16	Y16	Z16	X17	Y17	Z17	X18	Y18	Z18	X19	Y19	Z19	X20	Y20	Z20	X21	Y21	Z21	X22	Y22	Z22	X23	Y23	Z23	X24	Y24	Z24	X25	Y25	Z25	X26	Y26	Z26	X27	Y27	Z27	X28	Y28	Z28	X29	Y29	Z29	X30	Y30	Z30	X31	Y31	Z31	X32	Y32	Z32	X33	Y33	Z33	X34	Y34	Z34	X35	Y35	Z35	X36	Y36	Z36

889	7.40000	0.00000	0.00000	0.00000	-3215.90454	998.47388	494.10193	-3196.88525	678.71106	539.72644	-3222.88770	637.55878	532.41766	-3254.21509	704.55164	543.80054	0.00000	0.00000	0.00000	-3291.27710	543.41132	495.76877	-3323.40894	556.90076	361.81705	-3290.80322	376.12747	479.69177	0.00000	0.00000	0.00000	-3353.77686	383.59143	485.91815	-3354.08643	338.01996	486.49570	-3371.02637	93.79607	463.12018	-3373.81128	93.26090	382.24652	-3304.52954	55.06125	411.95670	-3515.74731	68.31678	503.28479	-3545.38306	96.60725	438.59009	-3527.79639	78.60229	402.71689	-2986.10425	1028.61060	297.86600	-3220.22021	972.61536	228.53969	-3022.92773	668.92822	158.04877	-3025.47046	625.22083	165.52759	-3084.87378	662.87439	162.77763	-3078.15356	622.23608	167.42014	-3031.80005	479.40298	206.30194	0.00000	0.00000	0.00000	-2853.24268	344.95761	196.74599	-2833.81982	302.75632	196.73549	-2907.04248	313.49701	194.51721	-2881.15674	276.73010	195.20244	-2768.25293	134.28253	225.78346	-2795.92017	142.61409	310.77994	-2704.80103	123.67767	275.49631	-2892.32544	46.56929	317.00211	-2928.36987	52.92863	271.27145	-2872.33643	38.48299	204.41063
890	7.40833	0.00000	0.00000	0.00000	-3225.89819	999.16455	495.60306	-3205.86279	678.65393	541.43488	-3230.55688	637.47223	534.40063	-3263.40796	705.07794	545.67664	0.00000	0.00000	0.00000	-3298.43042	543.30518	497.71497	-3330.77539	556.87079	363.73245	-3295.97241	376.11768	481.03052	-3306.08398	329.44556	483.93079	-3359.03638	382.76306	487.29980	-3360.09595	338.02594	487.69312	-3371.83789	93.22903	463.37961	-3375.00854	92.87963	382.76425	0.00000	0.00000	0.00000	-3516.68311	65.34617	503.41241	-3546.74121	93.40997	438.97241	-3528.95825	75.94377	402.85211	-2997.36548	1028.20837	299.36026	-3230.18115	972.02740	230.55013	-3034.42944	668.35034	159.33803	-3035.38428	625.00256	166.43867	-3095.69604	662.53796	163.90822	-3088.98999	621.94830	168.45480	-3042.25342	478.96191	206.62733	-3050.62256	489.97211	328.72543	-2860.85693	347.83063	196.85226	-2840.61548	305.81253	196.63078	-2914.02881	315.31186	194.27022	-2887.43579	279.10251	194.76324	-2771.60986	138.37663	224.61316	-2799.86060	146.07768	309.60980	-2708.42188	129.72862	274.59198	-2892.93848	46.69250	316.87607	-2928.49072	53.54176	271.31952	-2873.00854	38.79184	204.40120
891	7.41667	0.00000	0.00000	0.00000	-3235.83691	1000.14868	497.23618	-3213.99756	679.21259	543.36877	-3238.61523	637.78619	536.52795	-3271.51318	705.32904	547.56744	-3284.73853	662.51843	535.05023	-3305.58887	543.33447	499.54416	-3337.94971	556.80573	365.60880	-3301.36963	376.10593	482.74393	-3310.50635	329.48267	485.08752	-3364.31372	382.07126	488.62466	-3364.69702	337.33960	488.87042	-3372.89893	92.79036	463.55682	-3376.20703	92.58731	383.27277	-3304.14771	55.65698	413.03705	-3517.52539	62.47786	503.63150	-3548.12988	90.41498	439.38092	-3530.00024	73.33573	403.12549	-3006.72241	1028.37085	300.50800	-3240.44922	971.88000	232.88289	-3045.51416	668.12189	160.52904	-3047.45801	624.53271	167.65279	-3106.96753	662.40656	165.00967	-3100.29712	621.73920	169.48027	-3053.27759	478.66833	206.86014	-3062.13525	489.05966	329.36478	-2869.02588	350.98337	196.88545	-2847.81836	309.24084	196.39017	-2921.56274	317.43741	193.78644	-2894.16870	281.77606	194.14186	-2775.75806	142.84250	223.42487	-2804.41772	149.87648	308.24466	-2712.74146	136.52257	273.17798	-2893.60400	46.91934	316.75824	-2928.67163	54.89693	270.52582	-2873.82349	39.19508	204.35928
892	7.42500	0.00000	0.00000	0.00000	-3245.55444	1001.19293	499.03754	-3222.77686	679.41412	546.56403	-3247.03369	638.37311	538.72736	-3279.94263	705.83197	549.43567	0.00000	0.00000	0.00000	-3312.73633	543.39984	501.32578	-3345.21484	556.84045	367.41330	-3305.90210	376.33841	483.51340	-3314.88501	329.62869	486.23853	-3369.37769	381.41702	489.85617	-3369.17944	336.69016	490.00128	-3374.33472	92.36102	463.69144	-3377.26123	92.31555	383.69583	0.00000	0.00000	0.00000	-3518.32642	59.97764	503.68207	-3549.36499	87.50667	439.65201	-3531.05176	70.91605	403.25385	-3017.86060	1028.14368	302.02579	-3250.68188	972.01178	235.42339	-3057.17505	667.81995	161.71301	-3058.00098	624.44733	168.55533	-3118.22803	662.17346	166.29529	-3112.01733	621.49139	170.41777	-3064.86719	478.44064	207.05540	-3074.51392	488.10648	329.99152	-2877.85449	354.39807	196.73824	-2855.44214	313.36169	196.13141	-2929.70801	319.84534	193.19046	-2900.64429	284.63559	193.24255	-2780.52222	147.71216	222.04640	-2809.59155	153.84007	306.76709	-2717.73389	143.81776	271.92654	-2894.30371	47.25648	316.67035	-2930.81616	59.01977	270.21744	-2874.66772	39.51933	204.30138
893	7.43333	0.00000	0.00000	0.00000	-3255.41553	1002.46332	501.00119	-3231.13135	680.21857	548.78809	-3255.33594	638.93646	540.81042	-3288.50488	706.31250	551.25018	0.00000	0.00000	0.00000	-3319.72437	543.48621	503.06985	-3352.29102	556.91785	369.07681	-3310.24121	376.50098	484.72491	0.00000	0.00000	0.00000	-3372.58374	380.70499	490.67966	-3373.35303	336.09778	491.01181	-3374.77588	92.02300	463.87186	-3378.17188	92.05255	384.03741	0.00000	0.00000	0.00000	-3518.89258	57.75385	503.59235	-3550.28931	84.95650	439.70947	-3531.83765	68.80573	403.19150	-3027.38135	1028.30945	303.33121	-3261.07959	972.41919	238.22365	-3069.32666	667.34607	162.88559	-3071.61914	623.79089	169.55667	-3130.20801	662.03656	167.49551	-3123.82812	621.42676	171.24414	-3077.43115	478.19525	207.06914	-3087.54272	486.97534	330.34714	-2886.73438	356.67923	198.67372	-2865.21533	318.54898	196.09146	-2938.63013	322.28897	192.52403	-2909.24976	287.49664	192.16972	-2786.06055	152.76959	220.75412	-2815.40210	158.22348	305.18301	-2723.56812	151.37718	270.85904	-2894.96411	47.69816	316.49814	-2928.69556	55.91839	271.82343	-2875.68188	39.91798	204.17485
894	7.44167	0.00000	0.00000	0.00000	-3264.99902	1003.76550	503.14792	-3238.55933	681.02594	550.76086	-3263.38525	639.39227	542.68195	-3297.00391	706.79681	553.11884	0.00000	0.00000	0.00000	-3326.54907	543.50726	504.72452	-3359.03760	556.89191	370.69809	-3314.94385	376.70471	485.85574	0.00000	0.00000	0.00000	-3377.30249	380.12619	491.76480	-3377.60376	335.60907	492.00278	-3376.18774	91.68189	464.13348	-3379.05688	91.87599	384.39130	-3305.45117	56.07711	413.90720	-3519.50439	55.65805	503.53421	-3550.99829	82.63853	439.69418	-3532.46631	66.77640	403.12848	-3038.19336	1028.31323	304.67938	-3271.24634	973.10614	241.14221	-3082.07153	666.88647	163.91325	-3084.48755	623.20343	170.26598	-3143.61060	662.23901	168.63187	-3137.30005	621.22839	172.13884	-3090.81592	477.87158	206.82729	-3101.35205	485.78360	330.39706	-2898.69531	361.45926	196.75548	-2875.53296	322.58530	195.87029	-2948.59424	324.61682	191.84520	-2918.51562	290.56485	191.35188	-2792.70581	158.25404	219.72412	-2822.27490	162.74406	303.92169	-2730.62769	159.70679	269.87939	-2896.03125	48.19800	316.56165	-2929.34131	56.36116	271.84122	-2876.87842	40.45130	204.07091
895	7.45000	0.00000	0.00000	0.00000	-3274.48462	1005.14703	505.43741	-3247.43481	681.67249	552.58661	-3271.14258	639.80945	544.44952	-3305.30005	707.07281	554.97644	0.00000	0.00000	0.00000	-3333.15186	543.46521	506.30493	-3365.59155	556.86444	372.21597	-3319.92090	376.89929	486.96555	0.00000	0.00000	0.00000	-3381.89526	379.58432	492.75409	-3381.60913	335.09152	492.90103	-3376.55762	91.38323	464.33630	-3379.46021	91.88627	384.73352	-3306.05859	56.41467	414.12006	-3520.04004	53.60096	503.44113	-3551.51245	80.06007	439.88721	-3533.16528	64.77958	403.08356	-3048.28687	1028.33728	306.05618	-3281.34961	973.91583	244.25920	-3095.18140	666.25909	164.85065	-3098.08691	622.58966	170.86818	-3155.25903	661.43884	170.40909	-3150.87817	621.02856	172.78790	-3105.32227	477.32285	206.28851	-3115.94922	484.52399	330.06979	-2910.70679	364.83658	196.73178	-2886.35254	326.61316	195.58351	-2959.77856	326.94617	191.10109	-2932.05322	295.06540	189.38416	-2800.20801	163.88652	218.66653	-2830.36743	166.99704	302.28592	-2738.66821	168.50378	268.99539	-2897.35474	48.87790	316.84268	-2929.52368	56.33743	271.72287	-2878.29150	41.09086	203.90390
